HIERARCHY
ROOT Hips
{
	OFFSET 0.000000 0.000000 0.000000 
	CHANNELS 6 Xposition Yposition Zposition Zrotation Yrotation Xrotation
	JOINT LeftUpLeg
	{
		OFFSET 1.363060 -1.794630 0.839290 
		CHANNELS 3 Zrotation Yrotation Xrotation
		JOINT LeftLeg
		{
			OFFSET 2.448110 -6.726130 0.000000 
			CHANNELS 3 Zrotation Yrotation Xrotation
			JOINT LeftFoot
			{
				OFFSET 2.562200 -7.039590 0.000000 
				CHANNELS 3 Zrotation Yrotation Xrotation
				JOINT LeftToeBase
				{
					OFFSET 0.157640 -0.433110 2.322550 
					CHANNELS 3 Zrotation Yrotation Xrotation
					End Site
					{
						OFFSET 0.000000 0.000000 0.000000 
					}
				}
			}
		}
	}
	JOINT RightUpLeg
	{
		OFFSET -1.305520 -1.794630 0.839290 
		CHANNELS 3 Zrotation Yrotation Xrotation
		JOINT RightLeg
		{
			OFFSET -2.542530 -6.985550 0.000000 
			CHANNELS 3 Zrotation Yrotation Xrotation
			JOINT RightFoot
			{
				OFFSET -2.568260 -7.056230 0.000000 
				CHANNELS 3 Zrotation Yrotation Xrotation
				JOINT RightToeBase
				{
					OFFSET -0.164730 -0.452590 2.363150 
					CHANNELS 3 Zrotation Yrotation Xrotation
					End Site
					{
						OFFSET 0.000000 0.000000 0.000000 
					}
				}
			}
		}
	}
	JOINT Spine
	{
		OFFSET 0.028270 2.035590 -0.193380 
		CHANNELS 3 Zrotation Yrotation Xrotation
		JOINT Spine1
		{
			OFFSET 0.056720 2.048850 -0.042750 
			CHANNELS 3 Zrotation Yrotation Xrotation
			JOINT Neck1
			{
				OFFSET -0.054170 1.746240 0.172020 
				CHANNELS 3 Zrotation Yrotation Xrotation
				JOINT Head
				{
					OFFSET 0.104070 1.761360 -0.123970 
					CHANNELS 3 Zrotation Yrotation Xrotation
					End Site
					{
						OFFSET 0.000000 0.000000 0.000000 
					}
				}
			}
			JOINT LeftArm
			{
				OFFSET 3.362410 1.200890 -0.311210 
				CHANNELS 3 Zrotation Yrotation Xrotation
				JOINT LeftForeArm
				{
					OFFSET 4.983000 -0.000000 -0.000000 
					CHANNELS 3 Zrotation Yrotation Xrotation
					JOINT LeftHand
					{
						OFFSET 3.483560 -0.000000 -0.000000 
						CHANNELS 3 Zrotation Yrotation Xrotation
						JOINT LeftHandIndex1
						{
							OFFSET 0.715260 -0.000000 -0.000000 
							CHANNELS 3 Zrotation Yrotation Xrotation
							End Site
							{
								OFFSET 0.000000 0.000000 0.000000 
							}
						}
					}
				}
			}
			JOINT RightArm
			{
				OFFSET -3.136600 1.374050 -0.404650 
				CHANNELS 3 Zrotation Yrotation Xrotation
				JOINT RightForeArm
				{
					OFFSET -5.241900 -0.000000 -0.000000 
					CHANNELS 3 Zrotation Yrotation Xrotation
					JOINT RightHand
					{
						OFFSET -3.444170 -0.000000 -0.000000 
						CHANNELS 3 Zrotation Yrotation Xrotation
						JOINT RightHandIndex1
						{
							OFFSET -0.622530 -0.000000 -0.000000 
							CHANNELS 3 Zrotation Yrotation Xrotation
							End Site
							{
								OFFSET 0.000000 0.000000 0.000000 
							}
						}
					}
				}
			}
		}
	}
}
MOTION
Frames: 18
Frame Time: 0.041667
7.058509 17.821795 -8.261214 5.000414 -10.326955 5.498541 -6.204962 -15.116772 -25.081084 0.635848 6.686681 20.668912 -0.916642 5.993091 10.774841 0.080500 -1.829600 -5.035100 14.142386 6.876287 1.867949 -0.004510 -4.557586 14.267053 3.674367 -27.509724 -30.406559 -1.577100 -7.923100 22.480900 -0.839475 2.499874 -0.294764 -3.950342 1.095324 -1.006790 0.500524 -0.945751 12.041490 0.135100 -0.679200 6.641100 -87.922226 7.288463 3.602359 20.634173 -24.931738 -4.911319 -0.354289 -2.485189 -14.766451 -7.125000 0.000000 0.000000 90.166385 -10.392913 4.089768 -14.979302 22.018668 -3.105913 0.340373 -0.815288 6.271232 7.125000 0.000000 0.000000 
7.084468 17.824254 -8.221586 5.050914 -10.221009 5.671189 -6.402738 -15.156849 -25.241134 0.668041 6.737156 20.876344 -0.862752 5.719002 10.668654 0.057900 -1.552600 -4.270800 13.932884 6.495362 1.690796 -0.005640 -4.537330 14.194612 3.786368 -27.661998 -30.020039 -1.408900 -7.507700 21.228500 -1.019188 2.441495 -0.422983 -4.157832 1.062852 -0.988758 0.348417 -1.105115 11.849231 0.034000 -0.751400 6.542500 -87.873624 7.310896 4.822955 21.292530 -25.782770 -5.299008 -0.277065 -2.875907 -16.176291 -7.125000 0.000000 0.000000 90.289375 -10.534442 4.584692 -14.975482 22.009059 -3.097225 0.372578 -0.867808 6.547466 7.125000 0.000000 0.000000 
7.106397 17.822090 -8.193955 5.199306 -10.031151 5.656981 -6.741536 -15.024243 -25.257045 0.667801 6.733735 20.905002 -0.781949 5.427923 10.921973 0.052200 -1.474000 -4.053900 13.702320 6.173955 1.586750 -0.029074 -4.618262 14.404347 3.788989 -27.639479 -29.957086 -1.308900 -7.247200 20.450000 -1.125187 2.436625 -0.425786 -4.154836 1.059665 -0.967761 0.520017 -1.326548 11.761714 0.113800 -0.854300 6.497600 -88.605530 8.019030 14.028169 23.907418 -28.792098 -6.941352 -0.977390 -3.046349 -42.557090 -7.125000 0.000000 0.000000 90.307182 -10.491740 4.675795 -14.912797 21.918179 -3.071329 0.368703 -0.874696 6.876252 7.125000 0.000000 0.000000 
7.118688 17.815404 -8.168683 5.467194 -9.837881 5.511544 -7.129439 -15.047927 -25.151124 0.685916 6.762432 21.031908 -0.740388 5.255096 11.011696 0.019300 -0.897500 -2.466700 13.424559 6.100007 1.810562 -0.025363 -4.636289 14.413522 3.795618 -27.737962 -30.107490 -1.262400 -7.122200 20.077900 -1.182358 2.435251 -0.506382 -4.049062 1.051315 -1.157376 0.839300 -1.484556 11.856465 0.277500 -0.927700 6.545300 -87.735376 6.797641 6.336396 21.603908 -26.104322 -5.477121 -0.498976 -2.458103 -15.456401 -7.125000 0.000000 0.000000 90.288767 -10.324378 3.887669 -14.636292 21.527704 -2.954360 0.348034 -0.888290 7.684389 7.125000 0.000000 0.000000 
7.134913 17.815109 -8.127974 5.732253 -9.763077 5.475821 -7.490868 -15.226597 -25.055571 0.718013 6.806031 21.227431 -0.736467 5.133533 10.713040 0.001800 -0.274900 -0.755300 13.050242 6.011074 1.963874 -0.012931 -4.624030 14.330186 3.765243 -27.662884 -30.154675 -1.245700 -7.076700 19.942900 -1.215406 2.331353 -0.617624 -3.794616 0.997421 -1.300133 0.899071 -1.458229 12.052315 0.317300 -0.916900 6.671900 -87.874627 6.651962 7.218718 22.649570 -27.418375 -6.092110 -0.622800 -2.961326 -14.992531 -7.125000 0.000000 0.000000 90.158550 -10.121984 3.625553 -14.333068 21.086723 -2.828035 0.330310 -0.909392 8.408188 7.125000 0.000000 0.000000 
7.156448 17.819534 -8.082249 5.548712 -9.688227 5.527649 -7.447008 -15.254687 -25.037301 0.741390 6.859482 21.406168 -0.686091 4.854302 10.464763 0.011600 -0.694800 -1.909500 13.140340 5.774062 2.052824 -0.015628 -4.609480 14.289266 3.786200 -27.611628 -29.913830 -1.178000 -6.888700 19.386100 -1.176154 2.328158 -0.529979 -3.850491 0.990783 -1.016279 0.857426 -1.530933 12.141672 0.281600 -0.950400 6.767900 -87.912544 6.462579 7.524985 22.176413 -26.763534 -5.837369 -0.598418 -2.128402 -15.500169 -7.125000 0.000000 0.000000 90.106624 -9.790450 3.797957 -14.198897 20.877655 -2.772669 0.322525 -0.912514 8.626047 7.125000 0.000000 0.000000 
7.175131 17.823369 -8.041834 5.104106 -9.613763 5.650566 -7.110618 -15.179502 -25.101085 0.759453 6.917080 21.555230 -0.624879 4.590472 10.389475 0.025000 -1.020800 -2.806100 13.521668 5.397456 1.993679 -0.032950 -4.600165 14.300225 3.873843 -27.635880 -29.388219 -1.051100 -6.519400 18.299100 -1.059559 2.440832 -0.362876 -3.946638 1.042007 -0.556368 0.917994 -1.759394 11.937561 0.308700 -1.061600 6.697800 -88.029513 6.139834 8.513034 22.542334 -27.175584 -6.062420 -0.608564 -2.168336 -16.077180 -7.125000 0.000000 0.000000 90.071921 -9.423489 3.835872 -14.093448 20.714668 -2.729867 0.317063 -0.908022 8.403744 7.125000 0.000000 0.000000 
7.194699 17.827105 -8.002305 5.242733 -9.636070 5.676410 -7.402031 -15.070993 -25.142199 0.786200 6.967868 21.742159 -0.581753 4.369124 10.287660 0.011300 -0.686400 -1.886200 13.177055 4.760625 1.770285 -0.047849 -4.611109 14.308532 3.874075 -27.322097 -28.750542 -0.948700 -6.203200 17.375000 -1.111886 2.397187 -0.416001 -3.850702 1.016550 -0.513227 0.999090 -1.861546 11.904481 0.342300 -1.107700 6.671000 -88.118838 6.046830 9.000127 23.029329 -27.759548 -6.351824 -0.548627 -2.414374 -15.843138 -7.125000 0.000000 0.000000 90.040740 -9.297690 3.904739 -13.951159 20.501481 -2.671722 0.312881 -0.922557 8.438386 7.125000 0.000000 0.000000 
7.221446 17.831235 -7.963070 5.734467 -9.725879 5.524043 -8.121546 -14.946189 -25.022269 0.806351 6.995877 21.888682 -0.552494 4.192995 10.189598 0.002500 -0.325700 -0.895000 12.434967 4.264403 1.658409 -0.067214 -4.688803 14.459649 3.781130 -26.869555 -28.447931 -0.862400 -5.921700 16.557300 -1.274546 2.373699 -0.524459 -3.711729 1.002991 -0.715209 1.110056 -1.901748 11.835733 0.396100 -1.123700 6.608300 -88.257349 6.128537 9.258899 23.781424 -28.669025 -6.816634 -0.481795 -2.703639 -14.885123 -7.125000 0.000000 0.000000 89.998196 -9.343222 3.891019 -13.845791 20.347571 -2.626850 0.317994 -0.947825 8.784166 7.125000 0.000000 0.000000 
7.248389 17.838217 -7.922459 5.733072 -9.751154 5.527171 -8.243470 -14.958298 -24.909262 0.808794 7.000577 21.918007 -0.539186 4.110449 10.102361 0.000100 -0.052800 -0.145100 12.316659 4.143400 1.574373 -0.100252 -4.804788 14.781899 3.677680 -26.555229 -28.491508 -0.806100 -5.730000 16.003100 -1.304963 2.430172 -0.561288 -3.729725 1.030674 -0.740537 1.207551 -1.963764 11.569303 0.451800 -1.153500 6.496800 -88.187699 6.168187 9.991984 24.312247 -29.281870 -7.170823 -0.435979 -2.677746 -14.914981 -7.125000 0.000000 0.000000 89.995192 -9.138975 3.527537 -13.728117 20.178508 -2.579071 0.313395 -0.961245 9.260039 7.125000 0.000000 0.000000 
7.271005 17.848640 -7.881749 5.467243 -9.729918 5.665468 -8.038192 -15.022775 -24.876132 0.807292 7.003490 21.921409 -0.527734 4.034814 9.960221 0.000800 -0.186100 -0.511400 12.489651 3.943708 1.382209 -0.145114 -4.893660 15.048366 3.823226 -26.736407 -27.857034 -0.663700 -5.210200 14.509200 -1.322255 2.426950 -0.695955 -3.881238 1.030722 -0.829103 1.253758 -2.033084 11.743654 0.459400 -1.180600 6.612900 -87.922247 6.349334 11.100867 24.427290 -29.405217 -7.292399 -0.386775 -2.431184 -16.312092 -7.125000 0.000000 0.000000 90.092154 -8.858936 3.236444 -13.609226 20.007814 -2.533586 0.297759 -0.979673 9.763506 7.125000 0.000000 0.000000 
7.295588 17.857883 -7.842219 5.473749 -9.871825 5.587779 -8.193552 -14.929154 -24.720757 0.811351 7.023753 21.982118 -0.516214 3.946397 9.762704 0.008600 -0.597200 -1.641000 12.293014 3.603451 1.321981 -0.184922 -4.966766 15.217539 4.014259 -26.925716 -26.887172 -0.487500 -4.476900 12.422400 -1.403112 2.447549 -0.782276 -3.952424 1.039771 -0.955514 1.405132 -2.139047 12.216070 0.510800 -1.220600 6.844600 -87.797735 6.416919 11.986095 24.590347 -29.584880 -7.434077 -0.345575 -2.337902 -17.201124 -7.125000 0.000000 0.000000 90.071795 -8.633193 3.427749 -13.500685 19.845085 -2.493188 0.287591 -0.984967 9.970492 7.125000 0.000000 0.000000 
7.326170 17.861030 -7.796298 5.797301 -9.991752 5.296271 -8.758176 -14.820545 -24.405649 0.822995 7.047623 22.078596 -0.519661 3.924621 9.644015 0.003900 -0.403700 -1.109300 11.705874 3.114029 1.397147 -0.215451 -5.060755 15.412933 3.962194 -26.530389 -26.369523 -0.415000 -4.135300 11.457600 -1.502820 2.398307 -0.762758 -3.851676 1.011868 -1.009845 1.534734 -2.185657 12.261852 0.555600 -1.233100 6.857300 -87.913356 6.385994 12.274802 24.993418 -30.036211 -7.704660 -0.300026 -2.383716 -17.190312 -7.125000 0.000000 0.000000 89.965267 -8.427051 3.606564 -13.405704 19.701838 -2.459963 0.267888 -0.978005 10.081990 7.125000 0.000000 0.000000 
7.364225 17.863292 -7.751557 5.812197 -9.877749 5.248236 -9.000999 -14.726583 -24.299927 0.825099 7.052997 22.116317 -0.465750 3.711062 9.783299 0.001400 0.239500 0.658000 11.443175 2.556253 1.224675 -0.255606 -5.166011 15.700263 3.837167 -25.966696 -26.032319 -0.401400 -4.067600 11.266900 -1.458657 2.221295 -0.760505 -3.810038 0.922378 -0.924161 1.434121 -2.132928 12.059842 0.516500 -1.214100 6.774500 -88.113005 6.362695 12.551652 25.389005 -30.468095 -7.971407 -0.276322 -2.420125 -17.689553 -7.125000 0.000000 0.000000 89.799925 -8.163229 3.660919 -13.324742 19.579233 -2.430122 0.252182 -0.979542 10.279513 7.125000 0.000000 0.000000 
7.398543 17.872535 -7.710159 5.333611 -9.846909 5.360052 -8.686393 -14.423715 -24.344562 0.810326 7.064311 22.107216 -0.356490 3.306399 9.988213 0.004200 0.417900 1.148200 11.765150 2.267745 1.034233 -0.302691 -5.265614 16.034541 3.764763 -25.623299 -25.793006 -0.369900 -3.906600 10.814100 -1.254056 2.138146 -0.615257 -3.876337 0.879246 -0.542912 1.227728 -2.066468 11.958799 0.437900 -1.196400 6.778900 -88.296540 6.067188 12.952529 25.733254 -30.824763 -8.202451 -0.237125 -2.498679 -18.187418 -7.125000 0.000000 0.000000 89.628161 -7.597764 3.642481 -13.265061 19.481531 -2.404823 0.251288 -0.983223 10.856614 7.125000 0.000000 0.000000 
7.426272 17.887875 -7.669154 5.319577 -9.909633 5.181189 -8.871488 -14.154710 -24.134739 0.806496 7.084675 22.151101 -0.302240 3.081707 9.992732 0.001800 0.274800 0.755000 11.599345 1.994312 1.074968 -0.340505 -5.379315 16.344880 3.625830 -25.116477 -25.710655 -0.376700 -3.941900 10.913300 -1.208717 2.152852 -0.517951 -3.784445 0.885547 -0.468578 1.184213 -2.094809 11.938464 0.413700 -1.211000 6.774800 -88.468548 5.922050 13.099329 26.131903 -31.251485 -8.482241 -0.138688 -2.565850 -17.541192 -7.125000 0.000000 0.000000 89.590350 -7.193342 3.405147 -13.253953 19.462716 -2.399288 0.246441 -0.984562 11.465043 7.125000 0.000000 0.000000 
7.456166 17.903116 -7.628444 5.327339 -9.884494 4.985260 -9.064095 -14.112476 -23.830039 0.810054 7.106507 22.228110 -0.245716 2.793071 9.811255 0.001200 0.220300 0.605300 11.364475 1.544248 1.078326 -0.374247 -5.480801 16.620742 3.383900 -24.254657 -25.667771 -0.441400 -4.262800 11.817200 -1.213259 2.178192 -0.627599 -3.773448 0.903185 -0.755374 1.198910 -2.199511 11.811482 0.413400 -1.259500 6.665900 -88.619651 6.215139 13.391585 26.572948 -31.733944 -8.813028 -0.046307 -2.572013 -16.810761 -7.125000 0.000000 0.000000 89.576615 -7.181362 3.343828 -13.285463 19.513507 -2.412194 0.246173 -0.975321 11.419134 7.125000 0.000000 0.000000 
7.484977 17.913736 -7.578983 4.920381 -9.975656 4.948882 -8.774282 -14.101687 -23.583324 0.810725 7.138024 22.288872 -0.205070 2.590052 9.569483 0.000700 0.172900 0.475000 11.578069 1.247029 1.047937 -0.418221 -5.569935 16.893151 3.342706 -23.924211 -25.237163 -0.391100 -4.015900 11.121400 -1.108683 2.296197 -0.693855 -3.923693 0.966851 -0.808425 1.111332 -2.252381 11.580647 0.373700 -1.289100 6.516500 -88.786200 6.539646 14.169310 27.037555 -32.222021 -9.167563 -0.010497 -2.574550 -17.468534 -7.125000 0.000000 0.000000 89.479653 -7.238668 3.655098 -13.394193 19.677744 -2.454597 0.255687 -0.964055 10.919941 7.125000 0.000000 0.000000 
